# xmcd CD database file
#
# Track frame offsets:
#	150
#	10832
#	21667
#	34937
#	47322
#	61250
#	73398
#	83693
#	95371
#	107380
#	116136
#	126661
#	136437
#	148523
#	159327
#	169006
#	184331
#	197169
#	211811
#	224823
#	239772
#	251199
#	266130
#	276338
#	289023
#	317618
#	326876
#
# Disc length: 4483 seconds
#
# Revision: 0
# Processed by: cddbd v1.5.2PL0 Copyright (c) Steve Scherf et al.
# Submitted via: CDex 1.70beta2
#
DISCID=ae11811b
DTITLE=Greenhorns - Zlata Era 1967-1974 [CD3)
DYEAR=2007
DGENRE=Country
TTITLE0=Blues líného spřežení (Blue Yodel #8 - Mule Skinner Blues)
TTITLE1=Už tě vlak přiváží (Roll Muddy River)
TTITLE2=Vlak má zelenou (Train)
TTITLE3=Michalův song (The Year That Clayton Delaney Died)
TTITLE4=Bída s nouzí (Threw Away The Rose)
TTITLE5=Hromskej den (Along Came Jones)
TTITLE6=Hej Joe (Hey Joe)
TTITLE7=Rok 1849 [Year Forty Nine]
TTITLE8=Jižní vítr (South Wind)
TTITLE9=Sněžnej muž (Footprints In The Snow)
TTITLE10=Oči pálí a silnice je jako klín černej (My Baby Left Me)
TTITLE11=Honzův song (I've Been Everywhere)
TTITLE12=Cizinec (Tall Handsome Stranger)
TTITLE13=Duel (Duelling Banjos)
TTITLE14=Rychlík (Special)
TTITLE15=Ještě je čas (For The Good Times)
TTITLE16=Bílá kytka (You Are My Flower)
TTITLE17=Jarní zpráva (Don't Hold Your Breath)
TTITLE18=Louise (Louise)
TTITLE19=Balada o Ira Hayesovi (The Ballad Of Ira Hayes)
TTITLE20=Zpívám písně větru z hor (Any Old Wind That Blows)
TTITLE21=Odvolejte kněze (San Angelo)
TTITLE22=Já jedu dál (I'm Movin' On)
TTITLE23=Den se chýlí (Train Of Life)
TTITLE24=Feleena z El Pasa (Feleena From El Paso)
TTITLE25=Jižní vlak (Southbound)
TTITLE26=Banjo z Mlžných hor (Foggy Mountain Breakdown)
EXTD=YEAR: 2007
EXTT0=
EXTT1=
EXTT2=
EXTT3=
EXTT4=
EXTT5=
EXTT6=
EXTT7=
EXTT8=
EXTT9=
EXTT10=
EXTT11=
EXTT12=
EXTT13=
EXTT14=
EXTT15=
EXTT16=
EXTT17=
EXTT18=
EXTT19=
EXTT20=
EXTT21=
EXTT22=
EXTT23=
EXTT24=
EXTT25=
EXTT26=
PLAYORDER=
